<svg width="1549" height="286" viewBox="0 0 1549 286" fill="none" xmlns="http://www.w3.org/2000/svg">
<path d="M57.8474 57.8999V80.6931H115.174V124.446H57.8474V150.645H122.991V197.017H0V11.5276H122.991V57.8999H57.8474Z" fill="white"/>
<path d="M200.033 153.003H255.796V197.017H142.186V11.5276H200.033V153.003Z" fill="white"/>
<path d="M639.723 168.984H578.227L569.107 197.017H508.394L575.882 11.5276H642.589L709.817 197.017H648.843L639.723 168.984ZM625.652 125.231L608.975 73.6193L592.298 125.231H625.652Z" fill="white"/>
<path d="M813.118 197.017L778.462 130.471H778.201V197.017H720.354V11.5276H806.343C821.283 11.5276 834.051 14.2348 844.648 19.6493C855.244 24.8891 863.148 32.1375 868.36 41.3945C873.745 50.4768 876.438 60.7818 876.438 72.3094C876.438 84.7103 872.963 95.7139 866.015 105.32C859.24 114.927 849.425 121.826 836.57 126.017L876.698 197.017H813.118ZM778.201 91.6967H801.132C806.691 91.6967 810.86 90.4741 813.639 88.0288C816.419 85.4089 817.808 81.3917 817.808 75.9773C817.808 71.0868 816.332 67.2442 813.379 64.4497C810.599 61.6551 806.517 60.2578 801.132 60.2578H778.201V91.6967Z" fill="white"/>
<path d="M1037.19 11.5276V57.6379H988.203V197.017H930.356V57.6379H881.889V11.5276H1037.19Z" fill="white"/>
<path d="M1108.12 57.8999V80.6931H1165.45V124.446H1108.12V150.645H1173.27V197.017H1050.27V11.5276H1173.27V57.8999H1108.12Z" fill="white"/>
<path d="M1285.22 197.017L1250.57 130.471H1250.31V197.017H1192.46V11.5276H1278.45C1293.39 11.5276 1306.16 14.2348 1316.75 19.6493C1327.35 24.8891 1335.25 32.1375 1340.47 41.3945C1345.85 50.4768 1348.54 60.7818 1348.54 72.3094C1348.54 84.7103 1345.07 95.7139 1338.12 105.32C1331.35 114.927 1321.53 121.826 1308.68 126.017L1348.8 197.017H1285.22ZM1250.31 91.6967H1273.24C1278.8 91.6967 1282.97 90.4741 1285.75 88.0288C1288.53 85.4089 1289.92 81.3917 1289.92 75.9773C1289.92 71.0868 1288.44 67.2442 1285.49 64.4497C1282.71 61.6551 1278.62 60.2578 1273.24 60.2578H1250.31V91.6967Z" fill="white"/>
<path d="M1454.32 198.851C1436.95 198.851 1420.96 194.746 1406.37 186.537C1391.95 178.328 1380.49 166.975 1371.98 152.479C1363.46 137.982 1359.21 121.651 1359.21 103.486C1359.21 85.3216 1363.46 68.9908 1371.98 54.494C1380.49 39.9972 1391.95 28.7316 1406.37 20.6972C1420.96 12.4882 1436.95 8.38369 1454.32 8.38369C1471.69 8.38369 1487.58 12.4882 1502 20.6972C1516.42 28.7316 1527.8 39.9972 1536.14 54.494C1544.65 68.9908 1548.9 85.3216 1548.9 103.486C1548.9 121.651 1544.65 137.982 1536.14 152.479C1527.8 166.975 1516.33 178.328 1501.74 186.537C1487.32 194.746 1471.51 198.851 1454.32 198.851ZM1454.32 144.619C1465.78 144.619 1474.64 140.951 1480.9 133.615C1487.15 126.105 1490.28 116.062 1490.28 103.486C1490.28 90.7361 1487.15 80.6931 1480.9 73.3574C1474.64 65.847 1465.78 62.0918 1454.32 62.0918C1442.68 62.0918 1433.73 65.847 1427.48 73.3574C1421.22 80.6931 1418.1 90.7361 1418.1 103.486C1418.1 116.062 1421.22 126.105 1427.48 133.615C1433.73 140.951 1442.68 144.619 1454.32 144.619Z" fill="white"/>
<path d="M398.678 0C443.899 0 481.727 31.8199 491.226 74.4053H427.447C421.651 61.8643 410.938 53.4461 398.678 53.4461C380.257 53.4461 365.324 72.4482 365.324 95.8885C365.324 119.329 380.257 138.331 398.678 138.331C410.938 138.331 421.651 129.913 427.447 117.372H490.987C486.752 128.899 482.582 137.807 476.672 149.642L398.678 285.046L320.695 149.664C310.061 134.254 303.829 115.541 303.829 95.3646C303.829 42.6962 346.294 0 398.678 0Z" fill="white"/>
</svg>
