<svg width="1550" height="457" viewBox="0 0 1550 457" fill="none" xmlns="http://www.w3.org/2000/svg">
<path d="M772.11 206.146H736.578C735.929 201.548 734.604 197.465 732.603 193.895C730.602 190.272 728.033 187.189 724.896 184.647C721.759 182.105 718.136 180.158 714.026 178.806C709.969 177.453 705.562 176.777 700.802 176.777C692.203 176.777 684.713 178.914 678.331 183.186C671.949 187.405 667.001 193.571 663.485 201.684C659.97 209.742 658.212 219.532 658.212 231.052C658.212 242.896 659.97 252.848 663.485 260.907C667.055 268.966 672.03 275.05 678.412 279.161C684.794 283.271 692.176 285.326 700.559 285.326C705.264 285.326 709.618 284.704 713.62 283.46C717.676 282.216 721.273 280.405 724.409 278.025C727.546 275.591 730.142 272.643 732.197 269.182C734.306 265.72 735.767 261.772 736.578 257.337L772.11 257.5C771.191 265.126 768.892 272.481 765.215 279.566C761.591 286.597 756.697 292.898 750.531 298.469C744.42 303.986 737.119 308.367 728.628 311.612C720.191 314.803 710.645 316.398 699.991 316.398C685.172 316.398 671.922 313.045 660.24 306.338C648.613 299.632 639.419 289.924 632.658 277.214C625.952 264.504 622.599 249.116 622.599 231.052C622.599 212.933 626.006 197.519 632.821 184.809C639.635 172.099 648.883 162.418 660.565 155.765C672.247 149.059 685.389 145.705 699.991 145.705C709.618 145.705 718.541 147.058 726.762 149.762C735.037 152.466 742.365 156.414 748.747 161.606C755.128 166.745 760.32 173.046 764.322 180.509C768.378 187.973 770.974 196.518 772.11 206.146Z" fill="#C1181D"/>
<path d="M827.614 316.479C819.663 316.479 812.579 315.1 806.359 312.342C800.14 309.529 795.218 305.392 791.594 299.929C788.025 294.413 786.24 287.544 786.24 279.323C786.24 272.4 787.511 266.586 790.053 261.88C792.595 257.175 796.056 253.389 800.437 250.523C804.818 247.656 809.793 245.493 815.364 244.032C820.988 242.572 826.883 241.544 833.049 240.949C840.296 240.192 846.137 239.489 850.572 238.84C855.006 238.137 858.224 237.109 860.225 235.757C862.226 234.405 863.227 232.404 863.227 229.754V229.267C863.227 224.129 861.604 220.154 858.359 217.341C855.169 214.529 850.626 213.123 844.731 213.123C838.511 213.123 833.563 214.502 829.885 217.26C826.207 219.964 823.774 223.372 822.584 227.482L790.621 224.886C792.243 217.314 795.434 210.77 800.194 205.253C804.953 199.682 811.091 195.41 818.609 192.435C826.18 189.406 834.942 187.892 844.893 187.892C851.815 187.892 858.441 188.703 864.768 190.326C871.15 191.948 876.802 194.463 881.723 197.871C886.699 201.278 890.62 205.659 893.486 211.013C896.352 216.314 897.786 222.669 897.786 230.078V314.127H865.012V296.846H864.038C862.037 300.741 859.36 304.175 856.007 307.15C852.654 310.07 848.625 312.369 843.919 314.046C839.214 315.668 833.779 316.479 827.614 316.479ZM837.511 292.628C842.594 292.628 847.083 291.627 850.977 289.626C854.871 287.571 857.927 284.813 860.144 281.351C862.362 277.89 863.47 273.968 863.47 269.588V256.364C862.389 257.067 860.901 257.716 859.008 258.311C857.17 258.852 855.087 259.365 852.762 259.852C850.436 260.285 848.111 260.691 845.785 261.069C843.46 261.394 841.351 261.691 839.458 261.962C835.401 262.556 831.859 263.503 828.83 264.801C825.802 266.099 823.449 267.857 821.773 270.074C820.096 272.238 819.258 274.942 819.258 278.187C819.258 282.892 820.961 286.489 824.369 288.977C827.83 291.411 832.211 292.628 837.511 292.628Z" fill="#C1181D"/>
<path d="M920.028 314.127V189.514H953.532V211.257H954.83C957.102 203.523 960.915 197.681 966.269 193.733C971.623 189.731 977.788 187.73 984.765 187.73C986.496 187.73 988.362 187.838 990.363 188.054C992.364 188.27 994.121 188.568 995.636 188.947V219.613C994.013 219.126 991.769 218.693 988.902 218.315C986.036 217.936 983.413 217.747 981.033 217.747C975.95 217.747 971.407 218.856 967.405 221.073C963.457 223.237 960.32 226.265 957.994 230.159C955.723 234.054 954.587 238.543 954.587 243.627V314.127H920.028Z" fill="#C1181D"/>
<path d="M1081.46 189.514V215.475H1006.42V189.514H1081.46ZM1023.46 159.659H1058.01V275.834C1058.01 279.025 1058.5 281.513 1059.47 283.298C1060.45 285.029 1061.8 286.246 1063.53 286.949C1065.32 287.652 1067.37 288.004 1069.7 288.004C1071.32 288.004 1072.94 287.868 1074.56 287.598C1076.19 287.273 1077.43 287.03 1078.3 286.868L1083.73 312.585C1082 313.126 1079.57 313.748 1076.43 314.451C1073.29 315.208 1069.48 315.668 1064.99 315.83C1056.66 316.155 1049.36 315.046 1043.09 312.504C1036.87 309.962 1032.03 306.014 1028.57 300.659C1025.1 295.305 1023.4 288.544 1023.46 280.378V159.659Z" fill="#C1181D"/>
<path d="M1154.85 316.561C1142.03 316.561 1131 313.964 1121.75 308.772C1112.56 303.526 1105.47 296.116 1100.5 286.543C1095.52 276.916 1093.03 265.531 1093.03 252.388C1093.03 239.57 1095.52 228.321 1100.5 218.639C1105.47 208.958 1112.48 201.413 1121.51 196.005C1130.59 190.596 1141.25 187.892 1153.47 187.892C1161.69 187.892 1169.34 189.217 1176.43 191.867C1183.57 194.463 1189.79 198.384 1195.09 203.631C1200.44 208.877 1204.61 215.475 1207.58 223.426C1210.56 231.322 1212.04 240.571 1212.04 251.172V260.664H1106.82V239.246H1179.51C1179.51 234.27 1178.43 229.862 1176.27 226.022C1174.1 222.182 1171.1 219.18 1167.26 217.017C1163.48 214.799 1159.07 213.691 1154.04 213.691C1148.79 213.691 1144.14 214.907 1140.09 217.341C1136.08 219.721 1132.95 222.939 1130.68 226.995C1128.4 230.998 1127.24 235.46 1127.19 240.382V260.745C1127.19 266.91 1128.32 272.238 1130.59 276.727C1132.92 281.216 1136.19 284.677 1140.41 287.111C1144.63 289.545 1149.63 290.762 1155.42 290.762C1159.26 290.762 1162.77 290.221 1165.96 289.139C1169.16 288.058 1171.89 286.435 1174.16 284.272C1176.43 282.108 1178.16 279.458 1179.35 276.321L1211.31 278.43C1209.69 286.111 1206.36 292.817 1201.33 298.55C1196.36 304.229 1189.92 308.664 1182.03 311.855C1174.18 314.992 1165.13 316.561 1154.85 316.561Z" fill="#C1181D"/>
<path d="M1230.03 314.127V189.514H1263.53V211.257H1264.83C1267.1 203.523 1270.91 197.681 1276.27 193.733C1281.62 189.731 1287.79 187.73 1294.76 187.73C1296.49 187.73 1298.36 187.838 1300.36 188.054C1302.36 188.27 1304.12 188.568 1305.63 188.947V219.613C1304.01 219.126 1301.77 218.693 1298.9 218.315C1296.03 217.936 1293.41 217.747 1291.03 217.747C1285.95 217.747 1281.4 218.856 1277.4 221.073C1273.45 223.237 1270.32 226.265 1267.99 230.159C1265.72 234.054 1264.58 238.543 1264.58 243.627V314.127H1230.03Z" fill="#C1181D"/>
<path d="M1369.43 316.561C1356.83 316.561 1345.93 313.883 1336.74 308.529C1327.6 303.12 1320.54 295.603 1315.57 285.975C1310.59 276.294 1308.1 265.071 1308.1 252.307C1308.1 239.435 1310.59 228.185 1315.57 218.558C1320.54 208.877 1327.6 201.359 1336.74 196.005C1345.93 190.596 1356.83 187.892 1369.43 187.892C1382.03 187.892 1392.9 190.596 1402.04 196.005C1411.24 201.359 1418.32 208.877 1423.3 218.558C1428.27 228.185 1430.76 239.435 1430.76 252.307C1430.76 265.071 1428.27 276.294 1423.3 285.975C1418.32 295.603 1411.24 303.12 1402.04 308.529C1392.9 313.883 1382.03 316.561 1369.43 316.561ZM1369.59 289.788C1375.33 289.788 1380.11 288.166 1383.95 284.921C1387.79 281.621 1390.69 277.132 1392.63 271.453C1394.63 265.775 1395.63 259.311 1395.63 252.064C1395.63 244.817 1394.63 238.353 1392.63 232.674C1390.69 226.995 1387.79 222.506 1383.95 219.207C1380.11 215.908 1375.33 214.258 1369.59 214.258C1363.81 214.258 1358.94 215.908 1354.99 219.207C1351.1 222.506 1348.15 226.995 1346.15 232.674C1344.2 238.353 1343.23 244.817 1343.23 252.064C1343.23 259.311 1344.2 265.775 1346.15 271.453C1348.15 277.132 1351.1 281.621 1354.99 284.921C1358.94 288.166 1363.81 289.788 1369.59 289.788Z" fill="#C1181D"/>
<path d="M425.63 314.127V147.977H537.581V176.94H460.757V216.53H531.821V245.493H460.757V285.164H537.906V314.127H425.63Z" fill="#0F172A"/>
<path d="M594.849 147.977V314.127H560.29V147.977H594.849Z" fill="#0F172A"/>
<path d="M1449.96 314.127V255.974H1472.9C1477.29 255.974 1481.04 256.76 1484.14 258.331C1487.27 259.883 1489.64 262.089 1491.27 264.947C1492.92 267.787 1493.74 271.128 1493.74 274.97C1493.74 278.832 1492.91 282.154 1491.24 284.937C1489.57 287.701 1487.16 289.821 1484 291.297C1480.86 292.774 1477.05 293.512 1472.59 293.512H1457.23V283.631H1470.6C1472.95 283.631 1474.9 283.309 1476.45 282.665C1478 282.022 1479.15 281.056 1479.91 279.769C1480.69 278.482 1481.08 276.882 1481.08 274.97C1481.08 273.04 1480.69 271.412 1479.91 270.086C1479.15 268.761 1477.99 267.758 1476.42 267.077C1474.87 266.376 1472.91 266.026 1470.54 266.026H1462.25V314.127H1449.96ZM1481.36 287.663L1495.81 314.127H1482.24L1468.1 287.663H1481.36Z" fill="#0F172A"/>
<path d="M1521.44 314.127H1500.83V255.974H1521.61C1527.46 255.974 1532.5 257.138 1536.72 259.467C1540.94 261.776 1544.19 265.098 1546.46 269.433C1548.75 273.768 1549.89 278.955 1549.89 284.994C1549.89 291.051 1548.75 296.257 1546.46 300.611C1544.19 304.965 1540.92 308.306 1536.66 310.634C1532.42 312.963 1527.35 314.127 1521.44 314.127ZM1513.12 303.592H1520.93C1524.57 303.592 1527.62 302.949 1530.1 301.661C1532.6 300.355 1534.47 298.339 1535.72 295.613C1536.99 292.868 1537.63 289.329 1537.63 284.994C1537.63 280.697 1536.99 277.185 1535.72 274.459C1534.47 271.733 1532.61 269.727 1530.13 268.44C1527.65 267.152 1524.59 266.509 1520.96 266.509H1513.12V303.592Z" fill="#0F172A"/>
<path d="M176.108 0C253.305 0.000722859 318.891 48.3323 342.667 115.589L246.086 129.41C231.612 106.593 205.684 91.3823 176.102 91.3823C130.716 91.3843 93.9212 127.183 93.9212 171.342C93.9212 215.501 130.716 251.299 176.102 251.301C203.603 251.301 227.944 238.152 242.862 217.97L339.008 237.158C309.702 316.616 237.033 401.346 177.045 456.912C99.9445 385.496 0 265.971 0 171.342C0 76.7123 78.847 0 176.108 0Z" fill="#A72323"/>
<path d="M175.818 0.00139438C252.967 0.00286762 318.535 48.0765 342.522 115.049C342.569 115.232 342.621 115.413 342.667 115.596L245.941 129.411C231.437 106.595 205.455 91.3843 175.812 91.3837C164.93 91.3842 154.54 93.4336 145.031 97.1564C107.762 103.287 59.9779 123.231 0 165.632C1.11648 145.576 4.86003 127.265 10.7251 110.704C35.9482 46.0058 100.345 0.00139438 175.818 0.00139438Z" fill="#BD2627"/>
<path d="M339.008 237.158C310.881 313.417 243.324 394.048 184.858 449.576C182.345 451.774 179.605 454.733 177.045 456.912C136.571 419.384 88.5224 368.385 53.773 314.127C80.0681 235.881 187.817 289.258 242.862 217.97L339.008 237.158Z" fill="#871D1E"/>
</svg>
